<svg width="19" height="19" viewBox="0 0 19 19" fill="none" xmlns="http://www.w3.org/2000/svg">
<g clip-path="url(#clip0_92_1104)">
<path d="M10 5C6.81818 5 4.10091 6.866 3 9.5C4.10091 12.134 6.81818 14 10 14C13.1818 14 15.8991 12.134 17 9.5C15.8991 6.866 13.1818 5 10 5ZM10 12.5C8.24364 12.5 6.81818 11.156 6.81818 9.5C6.81818 7.844 8.24364 6.5 10 6.5C11.7564 6.5 13.1818 7.844 13.1818 9.5C13.1818 11.156 11.7564 12.5 10 12.5ZM10 7.7C8.94364 7.7 8.09091 8.504 8.09091 9.5C8.09091 10.496 8.94364 11.3 10 11.3C11.0564 11.3 11.9091 10.496 11.9091 9.5C11.9091 8.504 11.0564 7.7 10 7.7Z" fill="#959499"/>
</g>
<defs>
<clipPath id="clip0_92_1104">
<rect width="19" height="19" rx="3" fill="white"/>
</clipPath>
</defs>
</svg>
